<svg xmlns="http://www.w3.org/2000/svg" viewBox="0 0 780 500" width="78" height="50">
  <rect width="780" height="500" rx="40" fill="#fff"/>
  <path d="M293.2 348.7l33.4-195.8h53.3l-33.4 195.8h-53.3z" fill="#1a1f71"/>
  <path d="M532.7 156.5c-10.5-4-27.1-8.3-47.7-8.3-52.6 0-89.7 26.5-89.9 64.5-.3 28.1 26.4 43.7 46.6 53.1 20.7 9.6 27.7 15.7 27.6 24.3-.1 13.1-16.5 19.1-31.8 19.1-21.3 0-32.6-3-50.1-10.2l-6.9-3.1-7.5 43.8c12.4 5.4 35.4 10.2 59.3 10.4 56 0 92.3-26.2 92.6-66.8.2-22.3-14-39.2-44.6-53.2-18.6-9.1-30-15.1-29.9-24.3 0-8.1 9.6-16.8 30.4-16.8 17.4-.3 30 3.5 39.8 7.5l4.8 2.2 7.3-42.2z" fill="#1a1f71"/>
  <path d="M610.1 152.9h-41.2c-12.7 0-22.3 3.5-27.9 16.2l-79.1 179.6h56l11.2-29.4h68.4l6.5 29.4h49.4l-43.3-195.8zm-65.6 126.4c4.4-11.3 21.4-54.8 21.4-54.8-.3.5 4.4-11.4 7.1-18.8l3.6 17s10.3 47.1 12.4 56.6h-44.5z" fill="#1a1f71"/>
  <path d="M247.1 152.9l-52.2 133.5-5.6-27.1c-9.7-31.2-39.9-65.1-73.7-82l47.7 171.3h56.4l83.8-195.7h-56.4z" fill="#1a1f71"/>
  <path d="M146.9 152.9H59.6l-.7 3.9c66.9 16.2 111.2 55.4 129.5 102.4l-18.7-90.1c-3.2-12.3-12.7-15.8-23.8-16.2z" fill="#f7a600"/>
</svg>
